<?xml version="1.0" standalone="no"?>
<!DOCTYPE svg PUBLIC "-//W3C//DTD SVG 20010904//EN"
 "http://www.w3.org/TR/2001/REC-SVG-20010904/DTD/svg10.dtd">
<svg version="1.0" xmlns="http://www.w3.org/2000/svg"
 width="150.000000pt" height="150.000000pt" viewBox="0 0 150.000000 150.000000"
 preserveAspectRatio="xMidYMid meet">
<metadata>
Created by potrace 1.14, written by Peter Selinger 2001-2017
</metadata>
<g transform="translate(0.000000,150.000000) scale(0.100000,-0.100000)"
fill="#000000" stroke="none">
<path d="M434 1060 c-181 -193 -330 -357 -332 -364 -2 -7 4 -19 13 -26 13 -11
20 -9 45 15 l30 29 0 -322 0 -322 558 2 557 3 5 310 c5 306 5 310 24 283 21
-32 37 -35 58 -10 15 16 -7 43 -283 362 -165 190 -310 355 -323 368 l-23 23
-329 -351z m610 -58 l236 -273 0 -315 0 -314 -210 0 c-133 0 -210 4 -210 10 0
6 70 10 191 10 l191 0 -7 32 c-10 43 -26 67 -41 61 -7 -3 -26 7 -41 21 -15 14
-32 25 -38 23 -5 -2 -16 5 -25 15 -21 26 -53 14 -47 -18 3 -17 -1 -23 -19 -27
-12 -2 -29 0 -38 5 -11 6 -26 1 -52 -18 -20 -16 -45 -29 -56 -29 -11 -1 -25
-9 -30 -18 -8 -14 -28 -17 -133 -17 -93 0 -125 3 -125 13 0 9 -2 9 -8 0 -6 -9
-12 -7 -25 7 -21 25 -46 26 -63 3 -11 -16 -13 -16 -25 9 -6 15 -20 30 -31 33
-10 4 -22 14 -28 24 -17 33 -48 32 -62 0 -13 -30 -38 -40 -38 -15 0 50 -50 -7
-65 -73 l-7 -31 176 0 c111 0 176 -4 176 -10 0 -6 -70 -10 -190 -10 l-190 0 0
320 0 321 277 290 276 290 23 -23 c12 -13 128 -146 258 -296z"/>
<path d="M554 885 c-26 -40 -33 -185 -9 -209 24 -24 45 -17 72 23 35 52 28 70
-10 26 -20 -23 -38 -36 -45 -31 -15 9 -16 114 -2 150 13 35 30 33 30 -4 0 -16
5 -30 10 -30 18 0 11 66 -9 84 -19 17 -20 17 -37 -9z"/>
<path d="M431 881 c-31 -23 -33 -76 -5 -95 53 -37 67 -54 61 -69 -4 -12 -18
-17 -47 -17 -33 0 -40 3 -40 20 0 11 -5 20 -11 20 -22 0 -4 -55 23 -68 28 -13
75 -2 90 21 16 26 8 66 -17 84 -70 49 -70 50 -55 68 9 11 23 15 42 11 33 -7
44 7 22 28 -20 21 -33 20 -63 -3z"/>
<path d="M657 893 c-11 -10 -8 -211 3 -218 6 -4 10 35 10 109 0 64 -1 116 -3
116 -2 0 -7 -3 -10 -7z"/>
<path d="M896 879 c-35 -27 -35 -72 -1 -96 70 -49 70 -50 56 -67 -20 -24 -87
-18 -83 7 3 20 -16 23 -24 3 -16 -41 46 -77 93 -54 59 29 56 80 -7 122 -22 14
-40 33 -40 40 0 18 33 29 60 21 23 -7 28 13 8 33 -17 17 -32 15 -62 -9z"/>
<path d="M1069 853 c-32 -64 -49 -67 -49 -9 0 25 -4 46 -10 46 -6 0 -10 -47
-10 -122 0 -83 3 -118 10 -108 5 8 10 33 10 55 l0 39 27 -42 c32 -48 59 -54
74 -16 11 31 2 47 -12 21 -14 -24 -24 -21 -47 15 l-20 32 24 32 c22 29 45 104
31 104 -3 0 -15 -21 -28 -47z"/>
<path d="M740 765 c0 -12 7 -15 25 -13 14 2 26 8 26 13 0 6 -12 11 -26 13 -18
2 -25 -1 -25 -13z"/>
<path d="M728 633 c-11 -13 -13 -25 -7 -40 11 -31 21 -29 13 2 -4 15 -1 32 6
40 17 21 6 19 -12 -2z"/>
<path d="M650 604 c0 -4 11 -17 25 -30 14 -13 25 -27 25 -32 0 -6 11 -17 25
-26 23 -15 29 -14 27 5 -1 4 8 15 19 25 17 15 22 16 29 4 5 -9 -2 -24 -24 -48
-30 -31 -35 -33 -56 -22 -18 10 -21 9 -18 -2 3 -7 10 -14 16 -14 7 -1 17 -2
22 -3 23 -3 6 -38 -31 -65 -46 -32 -47 -49 -10 -125 15 -33 16 -41 5 -45 -29
-11 -13 -26 24 -23 45 5 49 18 22 81 -22 53 -24 66 -11 66 5 0 19 -29 31 -65
12 -36 26 -68 32 -71 6 -4 6 1 -1 14 -6 11 -11 28 -11 36 0 13 7 12 45 -6 43
-21 58 -38 33 -38 -9 0 -9 -3 1 -12 10 -11 16 -8 32 11 29 35 24 49 -27 73
-37 19 -44 26 -39 43 17 56 17 146 1 190 -10 25 -23 46 -29 46 -37 5 -53 3
-62 -9 -17 -22 -48 -3 -41 24 6 21 3 24 -24 24 -16 0 -30 -3 -30 -6z m129
-271 c0 -25 -1 -25 -8 -8 -5 11 -7 23 -4 28 8 14 13 7 12 -20z"/>
<path d="M750 599 c0 -13 28 -18 33 -6 3 7 -3 13 -14 13 -11 0 -19 -3 -19 -7z"/>
<path d="M653 545 c4 -22 -76 -279 -97 -314 -4 -6 -3 -11 2 -11 5 0 33 68 62
150 50 142 62 166 73 138 2 -7 8 -10 13 -5 4 4 -2 14 -14 23 -12 8 -22 22 -22
30 0 8 -5 14 -11 14 -7 0 -9 -10 -6 -25z"/>
</g>
</svg>
